<svg xmlns="http://www.w3.org/2000/svg" width="200" height="80" viewBox="0 0 200 80">
  <g fill="none">
    <g transform="translate(-60 -186)translate(60 186)">
      <path d="M154.5 17.8C154.5 23.3 150 27.8 144.5 27.8 138.9 27.8 134.4 23.3 134.4 17.8L134.4 17.4C134.4 11.9 138.9 7.4 144.5 7.4 150 7.4 154.5 11.9 154.5 17.4L154.5 17.8ZM144.5 0.4C135 0.4 127.4 8 127.4 17.4L127.4 17.8C127.4 27.2 135 34.8 144.5 34.8 153.9 34.8 161.5 27.2 161.5 17.8L161.5 17.4C161.5 8 153.9 0.4 144.5 0.4L144.5 0.4Z" fill="#FFF"/>
      <path d="M87.1 0.6L82.7 0.6C81.9 0.6 81.3 1.3 81.3 2.1L81.3 22.7 66.8 1.5C66.4 0.9 65.7 0.6 65.1 0.6L59.6 0.6C58.8 0.6 58.1 1.2 58.1 2L58.1 33.2C58.1 34 58.8 34.6 59.6 34.6L63.9 34.6C64.7 34.6 65.4 34 65.4 33.2L65.4 13 79.7 33.8C80 34.3 80.7 34.6 81.3 34.6L87.1 34.6C87.9 34.6 88.5 34 88.5 33.2L88.5 2.1C88.5 1.3 87.9 0.6 87.1 0.6" fill="#FFF"/>
      <path d="M107.1 27.9L101.1 27.9 101.1 7.3 107.1 7.3C113.4 7.3 117.7 11.5 117.7 17.6 117.7 23.7 113.4 27.9 107.1 27.9M106.9 0.6L95.1 0.6C94.3 0.6 93.6 1.2 93.6 2L93.6 33.2C93.6 34 94.3 34.6 95.1 34.6L106.9 34.6C117.6 34.6 124.9 27.2 124.9 17.7L124.9 17.5C124.9 8 117.6 0.6 106.9 0.6" fill="#FFF"/>
      <path d="M21.3 15.2L7 15.2 7 7.6 25.1 7.6C25.7 7.6 26.3 7.2 26.5 6.6L28 2.5C28.3 1.6 27.6 0.6 26.6 0.6L1.5 0.6C0.7 0.6 0 1.2 0 2L0 33.2C0 34 0.7 34.6 1.5 34.6L5.6 34.6C6.4 34.6 7 34 7 33.2L7 22.3 19.9 22.3C20.5 22.3 21 21.9 21.2 21.3L22.7 17.2C23.1 16.2 22.3 15.2 21.3 15.2" fill="#FFF"/>
      <path d="M198.5 0.6L194 0.6C192.8 0.6 191.8 1.3 191.2 2.3L182.3 20.9 173.4 2.3C172.9 1.3 171.8 0.6 170.6 0.6L166.1 0.6C165.3 0.6 164.6 1.2 164.6 2.1L164.6 33.2C164.6 34 165.3 34.6 166.1 34.6L170.4 34.6C171.2 34.6 171.9 34 171.9 33.2L171.9 17 180.1 33.8C180.3 34.3 180.9 34.6 181.4 34.6L183.2 34.6C183.8 34.6 184.3 34.3 184.5 33.8L192.7 17 192.7 33.2C192.7 34 193.4 34.6 194.2 34.6L198.5 34.6C199.3 34.6 200 34 200 33.2L200 2.1C200 1.2 199.3 0.6 198.5 0.6" fill="#FFF"/>
      <path d="M33.9 22.6L38.2 11.4C38.5 10.8 39.4 10.8 39.7 11.4L43.9 22.6 33.9 22.6ZM55.4 32.7L43.6 1.9C43.3 1.1 42.6 0.6 41.7 0.6L36.2 0.6C35.3 0.6 34.5 1.1 34.2 1.9L22.5 32.7C22.2 33.7 22.8 34.6 23.8 34.6L28.4 34.6C29 34.6 29.5 34.3 29.7 33.7L30.9 30.5C31.1 30 31.7 29.6 32.2 29.6L45.6 29.6C46.2 29.6 46.7 30 47 30.5L48.2 33.7C48.4 34.3 48.9 34.6 49.5 34.6L54.1 34.6C55 34.6 55.7 33.7 55.4 32.7L55.4 32.7Z" fill="#FFF"/>
      <path d="M6 62.5C6.5 62.5 6.9 62.3 7.2 62.1 7.5 61.8 7.6 61.4 7.6 60.9 7.6 60.4 7.5 60 7.2 59.7 7 59.4 6.5 59.2 6 59.2L3.9 59.2 3.9 62.5 6 62.5ZM0.4 69.6C0.3 69.5 0.2 69.4 0.2 69.2L0.2 57C0.2 56.8 0.3 56.7 0.4 56.6 0.5 56.5 0.6 56.5 0.7 56.5L6.1 56.5C7.7 56.5 9 56.9 9.9 57.6 10.9 58.3 11.3 59.4 11.3 60.9 11.3 62.3 10.9 63.4 9.9 64.1 9 64.8 7.7 65.2 6.1 65.2L3.9 65.2 3.9 69.2C3.9 69.4 3.9 69.5 3.8 69.6 3.7 69.7 3.6 69.7 3.4 69.7L0.7 69.7C0.6 69.7 0.5 69.7 0.4 69.6L0.4 69.6Z" fill="#FFF"/>
      <path d="M21.6 66.5C22 66.1 22.2 65.5 22.2 64.6 22.2 63.9 22.2 63.4 22.2 63.1 22.2 62.8 22.2 62.3 22.2 61.6 22.2 60.7 22 60.1 21.6 59.7 21.2 59.3 20.7 59.1 20 59.1 19.3 59.1 18.8 59.3 18.4 59.7 18 60.1 17.8 60.7 17.8 61.6 17.8 61.9 17.8 62.4 17.8 63.1 17.8 63.8 17.8 64.3 17.8 64.6 17.8 65.5 18 66.1 18.4 66.5 18.8 66.9 19.3 67.1 20 67.1 20.7 67.1 21.2 66.9 21.6 66.5M15.7 68.6C14.7 67.7 14.2 66.4 14.1 64.8 14.1 64.4 14.1 63.9 14.1 63.1 14.1 62.4 14.1 61.9 14.1 61.5 14.1 59.8 14.7 58.6 15.8 57.7 16.8 56.8 18.2 56.3 20 56.3 21.8 56.3 23.2 56.8 24.2 57.7 25.3 58.6 25.8 59.8 25.9 61.5 25.9 62.2 25.9 62.8 25.9 63.1 25.9 63.5 25.9 64.1 25.9 64.8 25.8 66.4 25.3 67.7 24.2 68.6 23.2 69.5 21.8 69.9 20 69.9 18.2 69.9 16.8 69.5 15.7 68.6" fill="#FFF"/>
      <path d="M30.6 69.5C30.5 69.4 30.4 69.3 30.4 69.1L28.4 57C28.4 57 28.3 56.9 28.3 56.9 28.3 56.8 28.4 56.7 28.5 56.6 28.6 56.5 28.6 56.5 28.7 56.5L31.2 56.5C31.6 56.5 31.8 56.6 31.8 56.9L33 64.1 34.3 59.9C34.4 59.6 34.6 59.4 34.9 59.4L36.4 59.4C36.7 59.4 36.9 59.6 37 59.9L38.3 64 39.5 56.9C39.5 56.8 39.5 56.7 39.6 56.6 39.7 56.5 39.9 56.5 40.1 56.5L42.5 56.5C42.6 56.5 42.7 56.5 42.8 56.6 42.9 56.7 42.9 56.8 42.9 56.9L42.9 57 40.9 69.1C40.9 69.3 40.8 69.4 40.7 69.5 40.5 69.6 40.3 69.7 40.1 69.7L38.2 69.7C38 69.7 37.9 69.7 37.8 69.6 37.6 69.5 37.6 69.3 37.5 69.2L35.6 64 33.8 69.2C33.7 69.3 33.6 69.5 33.5 69.6 33.4 69.7 33.3 69.7 33.1 69.7L31.2 69.7C30.9 69.7 30.8 69.6 30.6 69.5" fill="#FFF"/>
      <path d="M46.1 69.6C46 69.5 45.9 69.4 45.9 69.2L45.9 57C45.9 56.8 46 56.7 46.1 56.6 46.1 56.5 46.3 56.5 46.4 56.5L55.4 56.5C55.5 56.5 55.6 56.5 55.7 56.6 55.8 56.7 55.8 56.8 55.8 57L55.8 58.9C55.8 59 55.8 59.1 55.7 59.2 55.6 59.3 55.5 59.3 55.4 59.3L49.4 59.3 49.4 61.7 54.9 61.7C55.1 61.7 55.2 61.8 55.3 61.9 55.4 62 55.4 62.1 55.4 62.2L55.4 63.9C55.4 64.1 55.4 64.2 55.3 64.3 55.2 64.4 55.1 64.4 54.9 64.4L49.4 64.4 49.4 66.9 55.5 66.9C55.6 66.9 55.8 66.9 55.9 67 56 67.1 56 67.2 56 67.4L56 69.2C56 69.4 56 69.5 55.9 69.6 55.8 69.7 55.6 69.7 55.5 69.7L46.4 69.7C46.3 69.7 46.2 69.7 46.1 69.6" fill="#FFF"/>
      <path d="M65 62.3C65.5 62.3 65.9 62.2 66.2 61.9 66.5 61.6 66.6 61.3 66.6 60.8 66.6 60.3 66.5 59.9 66.2 59.6 65.9 59.4 65.5 59.2 65 59.2L62.9 59.2 62.9 62.3 65 62.3ZM59.4 69.6C59.3 69.5 59.3 69.4 59.3 69.2L59.3 57C59.3 56.8 59.3 56.7 59.4 56.6 59.5 56.5 59.6 56.5 59.8 56.5L65 56.5C66.7 56.5 68 56.9 68.9 57.6 69.8 58.4 70.3 59.4 70.3 60.8 70.3 61.7 70.1 62.4 69.7 63.1 69.3 63.7 68.7 64.2 68 64.5L70.6 69.1C70.6 69.2 70.6 69.2 70.6 69.3 70.6 69.4 70.6 69.5 70.5 69.6 70.4 69.7 70.3 69.7 70.2 69.7L67.5 69.7C67.2 69.7 66.9 69.5 66.8 69.2L64.7 65.1 62.9 65.1 62.9 69.2C62.9 69.4 62.8 69.5 62.7 69.6 62.6 69.7 62.5 69.7 62.4 69.7L59.8 69.7C59.6 69.7 59.5 69.7 59.4 69.6L59.4 69.6Z" fill="#FFF"/>
      <path d="M73.7 69.6C73.6 69.5 73.6 69.4 73.6 69.2L73.6 57C73.6 56.8 73.6 56.7 73.7 56.6 73.8 56.5 73.9 56.5 74.1 56.5L83 56.5C83.2 56.5 83.3 56.5 83.4 56.6 83.5 56.7 83.5 56.8 83.5 57L83.5 58.9C83.5 59 83.5 59.1 83.4 59.2 83.3 59.3 83.2 59.3 83 59.3L77 59.3 77 61.7 82.6 61.7C82.7 61.7 82.9 61.8 82.9 61.9 83 62 83.1 62.1 83.1 62.2L83.1 63.9C83.1 64.1 83 64.2 82.9 64.3 82.9 64.4 82.7 64.4 82.6 64.4L77 64.4 77 66.9 83.2 66.9C83.3 66.9 83.4 66.9 83.5 67 83.6 67.1 83.7 67.2 83.7 67.4L83.7 69.2C83.7 69.4 83.6 69.5 83.5 69.6 83.4 69.7 83.3 69.7 83.2 69.7L74.1 69.7C73.9 69.7 73.8 69.7 73.7 69.6" fill="#FFF"/>
      <path d="M92.4 66.9C93.2 66.9 93.8 66.7 94.2 66.3 94.6 65.9 94.8 65.3 94.8 64.5 94.8 64.1 94.8 63.7 94.8 63.1 94.8 62.5 94.8 62 94.8 61.7 94.8 60.9 94.5 60.3 94.1 59.9 93.7 59.5 93.1 59.3 92.3 59.3L90.5 59.3 90.5 66.9 92.4 66.9ZM87.1 69.6C87 69.5 87 69.4 87 69.2L87 57C87 56.8 87 56.7 87.1 56.6 87.2 56.5 87.3 56.5 87.4 56.5L92.4 56.5C94.3 56.5 95.7 56.9 96.8 57.8 97.8 58.7 98.4 60 98.4 61.6 98.4 62 98.4 62.5 98.4 63.1 98.4 63.7 98.4 64.2 98.4 64.5 98.3 68 96.3 69.7 92.5 69.7L87.4 69.7C87.3 69.7 87.2 69.7 87.1 69.6L87.1 69.6Z" fill="#FFF"/>
      <path d="M113.5 67.2C114 67.2 114.4 67 114.7 66.7 114.9 66.4 115.1 66.1 115.1 65.7 115.1 65.3 114.9 64.9 114.7 64.6 114.4 64.3 114 64.2 113.5 64.2L111 64.2 111 67.2 113.5 67.2ZM113.4 61.7C113.8 61.7 114.2 61.6 114.4 61.3 114.7 61.1 114.8 60.8 114.8 60.4 114.8 60 114.7 59.7 114.4 59.4 114.2 59.2 113.8 59 113.4 59L111 59 111 61.7 113.4 61.7ZM107.6 69.6C107.5 69.5 107.4 69.4 107.4 69.2L107.4 57C107.4 56.8 107.5 56.7 107.6 56.6 107.6 56.5 107.8 56.5 107.9 56.5L113.8 56.5C115.4 56.5 116.6 56.8 117.3 57.5 118.1 58.1 118.5 59.1 118.5 60.3 118.5 60.9 118.4 61.4 118 61.8 117.7 62.3 117.4 62.6 117 62.8 117.5 63 117.9 63.4 118.3 63.9 118.6 64.4 118.8 65 118.8 65.7 118.8 67 118.4 67.9 117.5 68.6 116.7 69.4 115.5 69.7 113.9 69.7L107.9 69.7C107.8 69.7 107.7 69.7 107.6 69.6L107.6 69.6Z" fill="#FFF"/>
      <path d="M125.3 69.6C125.2 69.5 125.2 69.4 125.2 69.2L125.2 65.2 120.8 57.1C120.7 57 120.7 57 120.7 56.9 120.7 56.8 120.8 56.7 120.8 56.6 120.9 56.5 121 56.5 121.1 56.5L123.6 56.5C123.8 56.5 123.9 56.5 124.1 56.6 124.2 56.7 124.2 56.8 124.3 56.9L126.9 61.6 129.6 56.9C129.6 56.8 129.7 56.7 129.8 56.6 129.9 56.5 130.1 56.5 130.3 56.5L132.8 56.5C132.9 56.5 133 56.5 133 56.6 133.1 56.7 133.2 56.8 133.2 56.9 133.2 57 133.1 57 133.1 57.1L128.7 65.2 128.7 69.2C128.7 69.4 128.7 69.5 128.6 69.6 128.5 69.7 128.4 69.7 128.2 69.7L125.6 69.7C125.5 69.7 125.4 69.7 125.3 69.6" fill="#FFF"/>
      <path d="M143.1 69.5C143 69.4 142.9 69.3 142.9 69.1L140.9 57C140.9 57 140.9 56.9 140.9 56.9 140.9 56.8 140.9 56.7 141 56.6 141.1 56.5 141.2 56.5 141.3 56.5L143.7 56.5C144.1 56.5 144.3 56.6 144.3 56.9L145.5 64.1 146.8 59.9C146.9 59.6 147.1 59.4 147.4 59.4L148.9 59.4C149.2 59.4 149.4 59.6 149.5 59.9L150.8 64 152 56.9C152 56.8 152.1 56.7 152.1 56.6 152.2 56.5 152.4 56.5 152.6 56.5L155 56.5C155.2 56.5 155.3 56.5 155.3 56.6 155.4 56.7 155.4 56.8 155.4 56.9L155.4 57 153.4 69.1C153.4 69.3 153.3 69.4 153.2 69.5 153 69.6 152.9 69.7 152.7 69.7L150.7 69.7C150.5 69.7 150.4 69.7 150.3 69.6 150.2 69.5 150.1 69.3 150 69.2L148.2 64 146.3 69.2C146.2 69.3 146.1 69.5 146 69.6 145.9 69.7 145.8 69.7 145.6 69.7L143.7 69.7C143.4 69.7 143.3 69.6 143.1 69.5" fill="#FFF"/>
      <path d="M158.6 69.6C158.5 69.5 158.4 69.4 158.4 69.2L158.4 57C158.4 56.8 158.5 56.7 158.6 56.6 158.7 56.5 158.8 56.5 158.9 56.5L161.6 56.5C161.8 56.5 161.9 56.5 162 56.6 162.1 56.7 162.1 56.8 162.1 57L162.1 69.2C162.1 69.4 162.1 69.5 162 69.6 161.9 69.7 161.8 69.7 161.6 69.7L158.9 69.7C158.8 69.7 158.7 69.7 158.6 69.6" fill="#FFF"/>
      <path d="M165.9 69.6C165.9 69.5 165.8 69.4 165.8 69.2L165.8 57C165.8 56.8 165.8 56.7 165.9 56.6 166 56.5 166.1 56.5 166.3 56.5L168.8 56.5C169 56.5 169.1 56.5 169.2 56.6 169.2 56.7 169.3 56.8 169.3 57L169.3 61.1 172.7 56.9C172.8 56.6 173 56.5 173.4 56.5L176.3 56.5C176.4 56.5 176.5 56.5 176.6 56.6 176.7 56.7 176.7 56.8 176.7 56.9 176.7 57 176.7 57.1 176.6 57.1L172.2 62.8 177 69.1C177 69.1 177.1 69.2 177.1 69.3 177.1 69.4 177 69.5 176.9 69.6 176.8 69.7 176.7 69.7 176.6 69.7L173.7 69.7C173.5 69.7 173.3 69.7 173.2 69.6 173 69.5 172.9 69.4 172.9 69.3L169.3 64.7 169.3 69.2C169.3 69.4 169.2 69.5 169.2 69.6 169.1 69.7 169 69.7 168.8 69.7L166.3 69.7C166.2 69.7 166 69.7 165.9 69.6" fill="#FFF"/>
      <path d="M180 69.6C179.9 69.5 179.8 69.4 179.8 69.2L179.8 57C179.8 56.8 179.9 56.7 180 56.6 180.1 56.5 180.2 56.5 180.3 56.5L183 56.5C183.1 56.5 183.3 56.5 183.3 56.6 183.4 56.7 183.5 56.8 183.5 57L183.5 69.2C183.5 69.4 183.4 69.5 183.3 69.6 183.3 69.7 183.1 69.7 183 69.7L180.3 69.7C180.2 69.7 180.1 69.7 180 69.6" fill="#FFF"/>
      <path d="M191.2 64.6L194.6 64.6 192.9 59.8 191.2 64.6ZM186.4 69.6C186.3 69.5 186.2 69.4 186.2 69.3 186.2 69.2 186.3 69.2 186.3 69.1L190.7 57C190.8 56.7 191.1 56.5 191.4 56.5L194.4 56.5C194.8 56.5 195 56.7 195.2 57L199.6 69.1C199.6 69.2 199.6 69.2 199.6 69.3 199.6 69.4 199.6 69.5 199.5 69.6 199.4 69.7 199.3 69.7 199.2 69.7L196.7 69.7C196.4 69.7 196.2 69.6 196.1 69.3L195.4 67.5 190.4 67.5 189.8 69.3C189.6 69.6 189.4 69.7 189.1 69.7L186.6 69.7C186.5 69.7 186.5 69.7 186.4 69.6L186.4 69.6Z" fill="#FFF"/>
      <polygon points="0 48.1 200 48.1 200 45.2 0 45.2" fill="#00D6D6"/><polygon points="0 79.2 200 79.2 200 76.3 0 76.3" fill="#00D6D6"/>
    </g>
  </g>
</svg>
